<?xml version="1.0" standalone="no"?>
<!DOCTYPE svg PUBLIC "-//W3C//DTD SVG 20010904//EN"
 "http://www.w3.org/TR/2001/REC-SVG-20010904/DTD/svg10.dtd">
<svg version="1.0" xmlns="http://www.w3.org/2000/svg"
 width="600.000000pt" height="600.000000pt" viewBox="0 0 600.000000 600.000000"
 preserveAspectRatio="xMidYMid meet">
<metadata>
Created by potrace 1.14, written by Peter Selinger 2001-2017
</metadata>
<g transform="translate(0.000000,600.000000) scale(0.100000,-0.100000)"
fill="#000000" stroke="none">
<path d="M2828 5234 c-14 -15 -21 -15 -47 -4 -49 20 -185 9 -219 -18 -46 -37
-160 -92 -191 -92 -16 0 -42 -5 -56 -10 -23 -9 -26 -15 -23 -39 4 -24 0 -30
-27 -40 -43 -15 -56 -47 -40 -93 10 -32 10 -38 -5 -51 -10 -8 -22 -23 -28 -33
-8 -15 -14 -16 -34 -7 -36 16 -68 0 -68 -35 0 -25 -4 -29 -27 -29 -19 0 -36
-11 -55 -34 -30 -35 -36 -59 -16 -59 7 0 1 -7 -12 -17 -14 -9 -37 -27 -52 -41
-21 -19 -28 -22 -32 -11 -5 17 -34 135 -51 209 -19 80 -19 17 0 -90 22 -123
19 -155 -20 -230 -20 -39 -35 -59 -38 -50 -20 68 -36 132 -42 170 -3 25 -15
71 -27 102 -24 69 -27 64 95 205 105 121 141 179 51 83 -39 -41 -87 -93 -108
-115 l-38 -40 36 70 c20 39 57 95 83 124 26 30 42 52 35 50 -6 -2 -34 -31 -62
-64 -46 -54 -76 -107 -122 -214 l-14 -34 -62 58 c-82 76 -80 57 3 -25 51 -51
68 -75 80 -116 19 -65 19 -113 1 -120 -29 -11 -121 58 -163 122 -8 14 -18 22
-21 20 -10 -11 72 -106 116 -135 89 -57 89 -57 107 -131 10 -41 15 -91 13
-118 -5 -54 -48 -202 -58 -202 -3 0 -17 25 -29 56 -18 42 -35 64 -75 93 -101
75 -161 168 -173 271 -3 28 -10 53 -15 56 -5 4 -7 -10 -3 -33 25 -154 46 -198
144 -306 34 -37 61 -71 61 -76 0 -5 3 -16 6 -25 4 -11 1 -16 -11 -16 -13 0
-15 -4 -9 -17 5 -10 9 -52 9 -95 0 -69 2 -75 18 -67 12 7 17 6 17 -4 0 -8 -14
-20 -30 -27 -17 -7 -49 -26 -70 -41 -48 -35 -53 -26 -7 12 20 18 28 31 21 36
-114 84 -175 138 -211 186 -46 63 -51 75 -63 160 -6 43 -8 46 -9 16 -1 -36
-36 -114 -70 -158 l-19 -25 -13 42 c-11 37 -10 47 5 80 27 55 46 112 38 112
-4 -1 -19 -28 -34 -60 -15 -33 -31 -60 -35 -60 -11 0 -79 118 -92 160 -6 20
-15 63 -20 95 l-9 60 -1 -55 c-1 -72 21 -155 58 -218 32 -55 81 -182 81 -212
0 -23 -19 -30 -83 -30 -29 0 -59 -5 -67 -10 -10 -7 6 -8 51 -4 86 8 109 -3
109 -54 0 -69 30 -155 80 -232 54 -82 89 -155 90 -183 0 -18 -32 -35 -85 -44
-23 -4 -35 1 -54 21 -25 26 -25 26 -8 79 25 81 23 89 -39 143 -31 26 -70 66
-85 87 -16 22 -29 36 -29 31 0 -14 28 -53 87 -118 60 -67 63 -84 32 -157 -19
-43 -25 -49 -51 -49 -52 0 -151 30 -216 66 -35 19 -61 30 -57 24 13 -20 159
-100 234 -126 42 -15 78 -29 80 -31 2 -1 -24 -32 -58 -67 -84 -88 -104 -136
-104 -251 1 -116 27 -199 94 -300 28 -42 50 -78 48 -80 -8 -7 -78 23 -113 50
-20 15 -56 54 -81 87 -25 33 -45 57 -45 53 0 -12 33 -71 68 -120 l36 -50 -38
35 c-55 51 -115 134 -158 220 -47 94 -50 75 -4 -25 58 -126 143 -228 233 -281
l42 -25 -16 -35 c-19 -38 -25 -41 -43 -19 -13 15 -30 12 -30 -6 0 -6 28 -39
61 -75 47 -48 60 -68 56 -85 -9 -35 12 -140 43 -209 20 -45 30 -88 34 -139 9
-135 49 -192 289 -420 l98 -93 -15 -62 c-9 -34 -16 -89 -15 -122 1 -58 1 -59
10 -19 11 48 49 135 60 135 4 0 46 -52 92 -115 131 -176 150 -251 92 -354 -28
-48 -32 -66 -9 -36 22 29 70 125 78 157 12 53 -13 125 -84 233 -112 169 -115
179 -75 227 27 32 30 30 39 -40 12 -80 54 -165 118 -237 65 -73 88 -117 88
-163 0 -43 -27 -112 -59 -152 -47 -59 -45 -68 4 -15 59 64 100 148 99 200 -1
47 -20 88 -82 172 -37 50 -110 203 -97 203 2 0 21 -26 42 -57 21 -32 73 -92
116 -135 88 -86 113 -136 141 -277 20 -100 41 -144 93 -192 50 -48 109 -77
192 -95 114 -24 136 -17 45 15 -121 41 -189 93 -230 173 -27 53 -39 116 -30
153 6 24 10 26 39 19 59 -12 137 -45 166 -69 24 -21 29 -34 33 -88 3 -36 10
-73 16 -83 9 -15 11 -7 12 41 0 74 24 118 74 136 20 7 36 16 36 19 0 3 -37 18
-83 33 -90 29 -170 74 -181 102 -5 14 -3 15 6 8 7 -6 74 -26 148 -44 74 -18
137 -34 139 -35 2 -2 6 -18 10 -35 4 -18 12 -34 19 -35 7 -1 8 0 2 3 -14 7
-13 30 3 36 10 4 10 6 0 6 -18 1 -16 21 2 21 14 0 16 -7 31 -115 4 -27 9 -42
11 -32 6 23 43 23 43 -1 0 -10 -9 -25 -20 -35 -13 -10 -18 -22 -13 -30 5 -9 9
-7 11 6 3 15 14 21 35 18 4 0 7 11 7 25 0 22 3 24 23 18 33 -10 34 -14 9 -32
-18 -14 -21 -23 -16 -49 3 -18 15 -40 25 -49 14 -12 19 -31 19 -68 0 -28 3
-89 7 -136 7 -80 8 -82 14 -40 4 25 8 64 8 88 1 51 23 57 39 10 10 -33 10 -33
11 -5 1 19 9 31 25 38 25 12 36 35 36 77 0 27 -8 28 -26 5 -12 -16 -13 -10
-14 45 0 40 4 61 10 57 6 -3 10 -15 10 -27 0 -14 5 -18 15 -14 19 7 23 -9 35
-154 12 -141 12 -132 0 -125 -5 3 -10 0 -10 -9 0 -8 5 -16 11 -18 6 -2 13 -47
17 -103 5 -84 7 -94 13 -60 4 22 8 90 9 150 1 61 5 130 9 155 7 44 7 43 14
-34 4 -43 7 -106 7 -140 0 -36 4 -56 9 -51 5 6 13 82 16 170 4 88 11 167 16
175 6 11 8 8 9 -11 0 -15 9 -37 20 -50 l19 -24 17 43 c16 40 18 42 36 25 13
-12 22 -13 29 -6 8 8 3 16 -20 27 -45 24 -41 57 14 114 25 25 45 50 45 54 0 4
3 8 8 8 4 0 7 -15 8 -33 3 -104 17 -247 25 -247 5 0 9 38 9 85 l0 85 26 -12
c16 -8 24 -18 21 -28 -2 -10 0 -24 4 -33 6 -10 5 -18 -1 -22 -13 -8 -13 -52 0
-60 12 -7 50 12 50 25 0 6 -9 5 -20 -2 -10 -7 -22 -9 -26 -5 -8 8 15 67 27 67
13 0 11 48 -2 55 -19 12 1 88 30 112 l26 21 -18 52 c-10 29 -16 54 -13 57 3 3
45 14 93 24 48 10 121 27 160 39 83 23 83 23 83 11 0 -19 -99 -71 -187 -98
-51 -15 -93 -30 -93 -33 0 -3 20 -16 45 -28 59 -29 78 -59 79 -132 1 -77 15
-62 23 26 7 82 14 99 51 118 32 17 150 56 168 56 27 0 33 -54 13 -114 -42
-123 -106 -181 -259 -233 -105 -36 -88 -43 38 -17 89 18 182 64 219 108 41 48
70 123 87 219 18 110 50 177 92 196 19 8 59 49 100 102 38 48 70 86 72 84 9
-9 -52 -124 -94 -177 -80 -102 -91 -159 -49 -244 25 -51 124 -168 125 -148 0
6 -9 19 -21 30 -31 28 -66 92 -79 145 -10 41 -9 53 8 92 11 25 47 74 80 110
63 68 90 124 113 235 7 34 15 62 19 62 3 0 16 -16 29 -35 31 -45 26 -60 -55
-181 -93 -137 -118 -193 -112 -254 5 -53 49 -149 81 -177 14 -13 10 -1 -13 40
-60 106 -43 176 79 337 40 52 76 102 81 110 8 13 11 12 24 -5 9 -11 23 -40 32
-65 31 -87 35 -88 29 -7 -2 42 -12 94 -20 114 l-16 38 38 29 c21 16 93 86 161
155 149 153 189 223 202 347 5 50 18 103 36 144 22 51 28 82 29 145 l2 81 56
53 c54 51 76 85 63 98 -3 4 -15 -2 -25 -11 -19 -17 -20 -17 -35 13 -9 16 -16
32 -16 35 0 3 19 15 42 27 59 30 147 123 186 197 36 67 76 176 62 167 -5 -3
-14 -22 -20 -43 -19 -59 -94 -173 -151 -227 l-51 -50 36 49 c36 47 91 146 82
146 -2 0 -15 -19 -29 -42 -34 -58 -114 -134 -161 -153 -21 -9 -40 -14 -43 -12
-2 3 12 27 33 54 83 108 119 224 112 359 -5 98 -27 142 -117 227 -34 32 -61
60 -61 61 0 2 21 11 48 21 93 35 282 135 282 150 0 2 -35 -14 -77 -36 -72 -36
-227 -84 -244 -74 -15 10 -49 96 -49 125 0 22 12 44 43 78 24 26 54 63 67 82
14 21 2 12 -32 -25 -30 -33 -67 -67 -82 -74 -31 -17 -34 -55 -11 -121 21 -59
19 -67 -16 -86 -52 -26 -139 3 -139 47 0 26 33 91 77 153 48 67 90 158 104
225 18 82 21 84 109 77 49 -4 68 -3 55 3 -11 5 -41 10 -67 10 -64 1 -78 8 -78
41 0 33 39 124 86 200 43 71 64 155 63 250 l-2 75 -8 -77 c-12 -111 -23 -145
-75 -226 -53 -83 -52 -83 -99 20 -13 29 -24 47 -24 39 -1 -8 13 -45 31 -83 29
-64 30 -71 18 -108 -7 -22 -16 -40 -19 -40 -16 0 -73 113 -80 157 l-7 48 -11
-62 c-15 -80 -40 -127 -101 -189 -37 -37 -72 -60 -126 -83 -41 -17 -81 -31
-89 -31 -10 0 -16 18 -21 63 -6 56 -4 64 15 80 l21 17 -21 0 c-17 0 -21 6 -21
34 0 25 11 48 43 86 70 87 87 113 106 166 21 56 45 201 39 230 -3 11 -8 -3
-12 -31 -25 -187 -61 -256 -182 -355 -17 -14 -33 -32 -36 -40 -6 -20 -70 44
-97 99 -25 48 -26 89 -6 159 14 46 22 55 85 97 39 26 81 61 94 78 42 58 40 63
-7 11 -25 -28 -66 -61 -92 -75 -39 -21 -47 -22 -55 -9 -6 8 -7 29 -4 45 14 69
46 120 122 192 l77 74 -69 -55 c-39 -31 -73 -53 -77 -49 -3 5 -14 31 -23 60
-23 69 -82 157 -147 218 l-53 50 57 -65 c47 -54 117 -163 117 -183 0 -2 -48
46 -107 108 -60 62 -112 113 -116 114 -16 2 38 -64 134 -165 53 -56 99 -113
103 -128 4 -18 0 -43 -14 -74 -12 -26 -28 -76 -36 -112 -21 -99 -38 -160 -44
-160 -3 0 -18 25 -33 55 -29 60 -34 111 -17 192 16 76 27 173 20 173 -3 0 -11
-26 -17 -57 -9 -53 -44 -193 -50 -202 -1 -2 -16 8 -34 23 -31 26 -99 60 -106
53 -2 -3 22 -24 52 -47 60 -46 76 -70 94 -138 7 -23 25 -57 41 -75 15 -18 32
-51 36 -72 9 -48 23 -73 86 -147 60 -71 68 -107 68 -314 0 -146 2 -159 30
-242 26 -74 61 -207 60 -230 0 -4 -17 25 -38 63 -50 93 -96 159 -156 223 -44
47 -49 56 -38 72 16 26 15 35 -2 21 -14 -12 -46 -5 -46 9 0 34 -91 55 -118 28
-13 -13 -82 -20 -82 -8 0 5 5 12 10 15 6 4 8 11 4 16 -3 6 4 17 16 26 20 14
20 16 5 33 -16 18 -15 18 17 18 36 0 78 11 78 21 0 10 102 5 130 -7 29 -11 42
5 18 22 -8 6 -13 17 -10 24 2 7 -5 23 -16 35 -20 21 -20 23 -2 45 10 12 29 22
44 22 28 0 34 18 14 38 -7 7 -20 12 -30 12 -10 0 -27 9 -38 20 -11 11 -26 17
-35 14 -9 -4 -15 0 -15 9 0 8 -5 17 -11 19 -5 2 -7 11 -4 21 4 9 10 15 14 13
12 -7 51 14 51 28 0 22 -40 46 -77 46 -23 0 -31 4 -27 13 3 8 -10 25 -30 40
l-34 27 15 39 c15 38 14 41 -7 71 -18 25 -28 30 -46 26 -14 -4 -26 -1 -31 7
-4 8 -18 19 -30 26 -27 14 -110 15 -118 1 -3 -5 -16 -10 -28 -10 -12 0 -34 -7
-49 -14 -30 -16 -34 -11 -30 35 1 10 -11 22 -29 29 l-31 13 31 13 c21 9 31 20
31 34 0 29 -44 70 -74 70 -14 0 -28 5 -31 10 -11 18 -71 11 -90 -10 -24 -26
-38 -26 -23 1 10 17 10 23 1 26 -7 3 -13 9 -13 15 0 6 6 8 14 5 8 -3 20 1 27
9 10 13 14 13 29 -1 12 -11 20 -13 25 -6 12 21 -7 52 -45 71 -21 11 -41 24
-45 30 -3 5 -21 10 -38 10 -21 0 -36 7 -45 20 -13 21 -75 29 -87 10 -11 -17
-25 -11 -25 10 0 23 -42 44 -70 35 -15 -5 -17 -2 -13 15 9 33 -16 53 -57 46
-51 -8 -64 3 -46 39 18 34 7 60 -30 77 -20 9 -28 8 -47 -10 -22 -20 -22 -20
-46 -1 -13 10 -37 19 -53 19 l-30 0 23 18 c14 12 20 25 16 35 -8 22 -28 22
-49 1z m-78 -35 c10 -5 -3 -8 -38 -9 -33 0 -51 -4 -47 -10 3 -5 17 -10 31 -10
13 0 24 -5 24 -11 0 -8 -22 -10 -72 -6 -68 5 -75 3 -100 -21 -16 -14 -28 -21
-28 -16 0 15 82 92 105 97 25 7 105 -2 125 -14z m110 -68 c0 -5 -10 -11 -22
-14 -22 -6 -22 -6 -4 8 23 17 26 18 26 6z m-360 -9 c0 -5 -17 -16 -38 -24 -21
-8 -49 -29 -61 -47 -12 -17 -20 -31 -18 -31 3 0 47 20 99 44 99 47 192 72 153
42 -19 -15 -17 -16 22 -10 31 5 44 3 48 -7 6 -15 68 -17 118 -4 15 4 39 4 55
0 l27 -7 -22 -15 c-13 -9 -23 -24 -23 -35 0 -18 -4 -19 -47 -13 -27 4 -80 8
-119 8 -61 2 -74 -1 -101 -23 -17 -14 -39 -31 -49 -38 -17 -12 -17 -12 6 -6
14 3 65 8 114 9 75 2 91 0 107 -16 11 -11 19 -23 19 -29 0 -13 -61 -13 -94 0
-21 7 -26 6 -26 -5 0 -8 -8 -15 -17 -15 -10 0 -47 -14 -83 -31 -42 -20 -76
-29 -99 -27 -42 4 -53 -17 -17 -33 48 -22 27 -26 -61 -12 -49 8 -107 14 -130
13 -31 0 -43 4 -43 14 0 19 79 64 110 64 23 0 93 16 130 29 9 4 0 10 -25 18
l-40 12 33 17 c17 9 32 19 32 21 0 6 -40 -10 -90 -35 -31 -16 -45 -18 -60 -10
-21 11 -21 11 0 41 12 16 28 29 36 29 8 0 12 5 9 10 -3 6 -15 10 -26 10 -24 0
-24 12 -1 33 19 18 56 33 122 52 25 7 46 14 48 14 1 1 2 -3 2 -7z m-197 -119
c8 -7 -41 -63 -55 -63 -13 0 -9 24 8 48 15 22 35 28 47 15z m697 -7 c0 -2 -7
-7 -16 -10 -8 -3 -12 -2 -9 4 6 10 25 14 25 6z m-316 -132 c4 -10 -4 -21 -25
-32 -18 -9 -44 -27 -59 -39 -30 -24 -45 -28 -54 -14 -8 12 41 59 84 82 43 23
46 23 54 3z m182 -12 c-17 -16 -18 -16 -5 5 7 12 15 20 18 17 3 -2 -3 -12 -13
-22z m-27 0 c-7 -10 -25 -27 -40 -38 -16 -10 -29 -22 -29 -26 0 -5 -8 -8 -19
-8 -27 0 -41 -22 -37 -57 3 -25 -2 -35 -26 -53 l-30 -22 7 32 c5 24 4 31 -5
25 -8 -5 -11 0 -8 16 2 13 9 23 16 21 7 -1 12 3 10 10 -5 29 26 58 62 58 26 0
42 8 63 30 32 33 54 40 36 12z m-629 -47 c7 -8 29 -15 50 -15 54 0 55 -9 3
-37 -31 -16 -48 -21 -53 -13 -5 7 -11 6 -20 -4 -7 -9 -17 -13 -22 -10 -9 6
-115 -32 -132 -48 -15 -13 -23 -10 -29 11 -7 28 32 61 79 67 21 2 53 8 69 13
l30 9 -37 1 c-36 1 -49 16 -31 34 12 13 81 7 93 -8z m690 -21 c-7 -17 -7 -31
-1 -38 7 -8 1 -16 -20 -25 -17 -7 -33 -10 -36 -7 -3 3 -12 1 -20 -6 -17 -13
-28 -4 -20 17 4 8 18 15 32 15 14 0 25 5 25 11 0 5 -4 7 -10 4 -17 -10 -11 2
13 29 30 35 50 35 37 0z m20 -24 c0 -5 -4 -10 -10 -10 -5 0 -10 5 -10 10 0 6
5 10 10 10 6 0 10 -4 10 -10z m25 -108 c-3 -4 -24 -13 -47 -22 -22 -8 -39 -19
-38 -24 2 -12 -29 -29 -57 -32 -18 -2 -23 2 -23 22 0 13 9 33 20 44 20 20 30
22 105 23 22 0 34 2 27 4 -6 3 -9 9 -6 15 4 7 10 4 16 -6 6 -10 7 -20 3 -24z
m255 16 c0 -6 -6 -5 -15 2 -8 7 -15 14 -15 16 0 2 7 1 15 -2 8 -4 15 -11 15
-16z m-735 -13 l-30 -13 37 5 c20 3 44 3 52 0 24 -9 7 -47 -29 -61 -18 -8 -36
-19 -39 -25 -4 -6 -17 -11 -29 -11 -13 0 -33 -7 -46 -16 -21 -15 -24 -15 -39
0 -12 12 -13 16 -3 16 11 0 11 3 2 14 -10 12 -8 17 8 25 11 6 29 11 41 11 16
0 20 4 16 15 -6 17 47 55 74 55 8 -1 2 -7 -15 -15z m100 5 c-3 -5 -11 -10 -16
-10 -6 0 -7 5 -4 10 3 6 11 10 16 10 6 0 7 -4 4 -10z m-405 -9 c0 -6 -13 -11
-30 -11 -38 0 -70 -31 -70 -67 0 -24 -7 -31 -44 -46 -61 -25 -75 -43 -51 -65
10 -9 15 -12 11 -6 -3 7 14 26 40 45 25 19 61 47 80 62 24 20 50 31 91 37 62
8 73 6 73 -14 0 -8 -11 -13 -26 -13 -14 0 -31 -6 -37 -12 -8 -8 -7 -11 5 -11
8 0 21 -6 27 -14 10 -12 7 -18 -13 -31 -14 -10 -33 -14 -42 -11 -8 3 -25 -1
-37 -9 -12 -8 -31 -15 -42 -15 -14 0 -16 -3 -7 -8 9 -7 8 -13 -8 -27 -16 -15
-25 -17 -38 -9 -31 20 -25 40 18 59 27 12 37 21 28 26 -7 4 -15 4 -18 0 -3 -5
-18 -17 -35 -27 -16 -11 -30 -26 -30 -34 0 -8 -11 -17 -25 -18 -28 -4 -50 -19
-50 -34 0 -5 13 -7 29 -3 16 3 46 3 66 -1 33 -6 35 -8 21 -22 -13 -13 -17 -13
-38 0 -19 12 -31 13 -68 4 -37 -9 -45 -15 -43 -33 2 -16 -6 -24 -30 -32 -17
-7 -40 -21 -49 -34 -9 -12 -19 -19 -23 -16 -11 11 32 150 54 172 11 13 27 41
35 65 19 54 56 108 93 135 24 17 47 23 107 25 49 2 76 0 76 -7z m935 -11 c-3
-5 -15 -10 -25 -10 -10 0 -22 -5 -26 -11 -4 -8 1 -9 16 -4 19 6 21 4 15 -14
-4 -14 -2 -21 7 -21 7 0 0 -7 -17 -16 -16 -8 -39 -24 -50 -34 -11 -10 -33 -22
-50 -25 -16 -4 -38 -9 -47 -12 -28 -7 -22 26 7 39 14 6 25 16 25 22 0 6 4 5 9
-2 6 -10 10 -10 21 3 10 13 9 15 -7 15 -10 0 -27 6 -38 13 -17 13 -17 15 5 30
13 9 27 14 32 11 5 -3 14 -1 21 4 24 20 113 30 102 12z m-355 -26 c0 -22 -2
-24 -14 -14 -8 6 -12 18 -9 26 9 23 23 16 23 -12z m-47 -38 c40 -17 59 -39 79
-93 l16 -42 -36 24 c-20 14 -48 25 -62 25 -24 1 -24 1 -6 15 18 14 18 16 -18
50 -40 38 -30 46 27 21z m702 -26 c-15 -16 -14 -17 9 -13 14 3 49 -1 78 -7 42
-11 49 -15 33 -21 -11 -4 -32 -8 -47 -8 -47 -1 -31 -19 23 -26 31 -4 46 -10
39 -15 -10 -6 -9 -9 1 -12 8 -3 -14 -3 -48 0 -48 3 -69 0 -89 -12 -14 -10 -31
-15 -37 -12 -7 2 -4 5 6 5 9 1 17 6 17 12 0 7 -9 9 -22 5 -13 -3 -36 -6 -53
-7 -26 0 -28 -2 -10 -10 17 -7 15 -8 -10 -6 -18 1 -30 -3 -31 -10 -3 -23 -4
-24 -14 -18 -8 5 -8 11 0 20 6 7 9 19 8 26 -2 7 12 21 30 30 24 12 28 18 17
23 -23 8 -18 24 13 40 l27 15 -37 -6 c-26 -4 -38 -2 -38 6 0 8 8 10 19 6 11
-3 22 -2 24 2 3 4 28 9 57 10 49 1 50 0 35 -17z m-465 0 c0 -5 -5 -10 -11 -10
-5 0 -7 5 -4 10 3 6 8 10 11 10 2 0 4 -4 4 -10z m-34 -16 c-3 -9 -6 -23 -6
-31 0 -11 -6 -8 -19 8 -14 17 -16 26 -8 31 21 13 39 9 33 -8z m-561 -7 c17
-13 17 -15 -6 -30 -27 -19 -20 -21 31 -8 56 14 121 20 114 10 -3 -5 -1 -9 5
-9 5 0 11 5 13 12 3 7 14 9 34 3 l29 -8 -35 -10 c-19 -5 -42 -12 -50 -15 -8
-3 -23 -4 -33 -3 -11 2 -21 -5 -24 -18 -3 -11 -9 -19 -13 -16 -13 8 -41 -6
-37 -19 5 -16 -21 -39 -35 -30 -8 5 -9 2 -5 -10 6 -15 3 -17 -17 -12 -14 3
-26 1 -28 -5 -2 -7 -11 -7 -28 0 -14 5 -18 10 -10 11 13 0 13 2 1 9 -23 15 -5
39 33 47 20 3 36 10 36 14 0 5 -9 6 -20 3 -15 -4 -20 0 -21 13 -2 32 2 48 18
67 19 21 24 21 48 4z m470 -7 c4 -6 15 -8 26 -5 24 8 24 3 1 -35 l-19 -30 -16
40 c-14 36 -8 56 8 30z m275 -29 c0 -5 12 -11 28 -13 27 -4 27 -4 -11 -21 -37
-17 -101 -15 -112 3 -6 10 22 33 33 27 4 -3 14 -2 22 4 19 11 40 12 40 0z
m828 -23 c18 -18 15 -43 -9 -64 l-21 -19 19 33 c18 32 18 33 -1 47 -11 8 -15
15 -10 15 6 0 15 -5 22 -12z m-981 -24 c3 -9 0 -20 -8 -25 -9 -6 -4 -7 16 -3
17 4 32 11 33 16 5 10 42 11 42 0 0 -16 -24 -32 -48 -32 -13 0 -21 -4 -17 -9
3 -5 0 -13 -6 -17 -8 -4 -9 -3 -5 4 5 8 0 12 -13 12 -23 0 -37 -16 -19 -23 7
-2 1 -4 -14 -3 l-27 1 20 21 20 22 -40 -8 c-22 -4 -47 -13 -56 -20 -11 -9 -15
-9 -15 -1 0 22 21 52 31 45 6 -3 16 2 23 11 9 12 21 16 39 13 15 -3 24 -1 21
3 -3 5 0 9 6 9 6 0 13 -7 17 -16z m-354 -35 c28 -16 20 -29 -19 -29 -19 0 -33
-4 -30 -9 9 -13 -26 -23 -38 -11 -5 5 -17 10 -25 10 -14 0 -14 -1 -1 -10 8 -5
10 -10 4 -10 -18 0 -24 12 -14 26 6 6 20 9 32 6 14 -3 19 -1 14 6 -4 7 -5 16
-2 21 7 11 56 11 79 0z m647 -39 c-24 -15 -36 -11 -14 4 10 8 21 12 24 10 2
-3 -2 -9 -10 -14z m-1087 -24 c-3 -5 11 -7 31 -4 24 3 36 0 36 -8 0 -7 8 -15
18 -17 13 -4 11 -5 -5 -6 -13 0 -23 4 -23 11 0 6 -9 3 -20 -7 -11 -10 -23 -15
-27 -12 -3 4 -13 2 -20 -5 -9 -8 -17 -8 -21 -2 -4 6 -18 18 -31 27 -24 16 -24
16 -3 24 28 11 71 10 65 -1z m494 -8 c-3 -8 -6 -5 -6 6 -1 11 2 17 5 13 3 -3
4 -12 1 -19z m196 16 c6 -7 -24 -73 -34 -74 -3 0 -4 11 -1 25 2 14 8 25 13 25
5 0 9 6 9 13 -1 6 -11 0 -23 -14 -16 -20 -25 -24 -33 -15 -9 8 -4 15 20 28 35
19 40 21 49 12z m67 -51 c0 -21 5 -55 11 -76 6 -22 9 -41 6 -43 -2 -2 -16 5
-30 17 -23 17 -27 28 -27 73 0 55 4 66 27 66 8 0 13 -13 13 -37z m50 -18 c0
-60 -14 -74 -24 -24 -10 52 -7 79 9 79 12 0 15 -13 15 -55z m229 50 c-13 -12
-79 -34 -79 -26 0 5 12 14 28 19 29 11 58 15 51 7z m-722 -42 c0 -15 8 -32 15
-37 8 -6 23 -24 33 -39 10 -15 31 -35 47 -43 26 -14 55 -60 44 -72 -10 -9 -77
41 -91 67 -8 16 -29 41 -48 58 -50 44 -53 53 -26 74 13 10 24 19 24 19 0 0 1
-12 2 -27z m549 18 c20 16 18 -2 -3 -40 -23 -40 -33 -39 -33 2 0 34 12 57 18
37 3 -8 8 -8 18 1z m179 -1 c3 -5 1 -10 -4 -10 -6 0 -11 5 -11 10 0 6 2 10 4
10 3 0 8 -4 11 -10z m-1233 -28 l-23 -4 26 -24 c14 -13 34 -24 43 -25 12 0 11
-3 -5 -9 -13 -5 -23 -14 -23 -19 0 -5 -17 -12 -37 -15 -21 -4 -47 -8 -58 -10
-11 -2 -27 -6 -35 -9 -8 -3 -32 -8 -52 -12 -36 -6 -37 -5 -36 25 1 34 37 66
62 57 10 -4 13 -1 10 7 -7 19 118 60 141 47 6 -3 0 -7 -13 -9z m428 8 c0 -5
-2 -10 -4 -10 -3 0 -8 5 -11 10 -3 6 -1 10 4 10 6 0 11 -4 11 -10z m-106 -21
c-7 -11 -44 -12 -44 -1 0 15 11 20 30 15 11 -3 17 -9 14 -14z m98 -11 c35 -37
23 -47 -26 -24 -19 9 -42 16 -53 17 -15 0 -15 2 5 11 12 6 22 15 22 20 0 17
23 7 52 -24z m471 15 c-11 -31 -15 -35 -24 -22 -4 8 -3 19 3 26 15 19 28 16
21 -4z m242 -10 c-4 -13 -3 -14 10 -3 22 18 19 7 -16 -62 -23 -45 -33 -58 -40
-47 -5 8 -9 23 -9 33 0 26 22 89 34 98 15 10 28 -2 21 -19z m555 17 c0 -5 -10
-10 -22 -9 -22 0 -22 1 -3 9 11 5 21 9 23 9 1 1 2 -3 2 -9z m-1470 -10 c-14
-4 -34 -8 -45 -8 -16 0 -15 2 5 8 14 4 34 8 45 8 16 0 15 -2 -5 -8z m560 0 c3
-2 8 -2 12 -1 4 0 4 -7 1 -16 -5 -12 -3 -14 7 -8 8 5 11 4 7 -2 -4 -6 1 -25 9
-43 28 -56 15 -163 -40 -322 -26 -76 -46 -144 -43 -150 3 -8 7 -6 12 7 3 11
18 47 32 80 70 166 83 197 89 230 l6 36 13 -25 c7 -14 15 -75 17 -143 5 -119
21 -179 83 -308 l15 -30 -2 30 c0 17 0 46 1 65 3 38 3 39 45 -145 16 -73 20
-212 6 -255 -4 -14 -8 -19 -9 -12 -1 12 -98 230 -108 241 -11 14 -8 -11 7 -56
20 -60 13 -66 -24 -23 -42 51 -51 97 -28 150 l19 45 25 -50 c14 -27 36 -78 48
-113 13 -34 27 -65 33 -69 5 -3 7 3 4 13 -4 11 -16 57 -27 104 -12 47 -37 119
-57 160 -55 117 -65 149 -72 235 -7 73 -8 77 -14 40 -4 -22 -14 -60 -22 -85
-19 -57 -19 -84 1 -45 8 17 12 22 9 11 -25 -88 -28 -161 -11 -285 10 -70 16
-136 15 -146 -5 -26 -72 73 -99 148 -33 89 -51 103 -178 146 -62 20 -111 33
-109 28 2 -6 34 -28 72 -49 103 -59 135 -86 157 -135 11 -25 17 -47 15 -50 -3
-2 -10 11 -16 30 -15 44 -61 87 -143 132 -37 20 -81 53 -99 72 -31 36 -99 137
-99 147 0 3 21 -10 46 -29 29 -22 76 -44 132 -60 173 -51 204 -69 206 -118 2
-23 75 -147 88 -147 13 0 -11 59 -41 104 -17 24 -31 52 -31 61 0 21 -27 74
-52 101 -19 22 -19 22 18 70 45 59 105 184 103 216 l-2 23 -4 -22 c-10 -52
-72 -4 -107 82 -32 81 -32 90 0 120 22 20 53 26 84 15z m813 -20 c-3 -11 -9
-20 -14 -20 -11 0 -11 3 -3 24 9 23 23 20 17 -4z m-343 -30 c23 -22 40 -44 38
-48 -3 -4 -13 -26 -24 -49 -10 -24 -22 -43 -26 -43 -4 0 -15 25 -24 56 -9 30
-18 53 -20 51 -6 -6 10 -72 27 -115 12 -29 11 -36 -11 -77 -14 -25 -27 -45
-30 -45 -17 1 -50 76 -55 126 -6 50 -3 68 19 116 14 31 33 58 43 61 10 3 19 5
20 6 1 0 21 -17 43 -39z m60 4 c0 -13 -4 -24 -9 -24 -10 0 -21 47 -13 54 10
11 22 -6 22 -30z m167 -7 c-17 -39 -37 -57 -37 -32 0 19 39 79 47 72 2 -3 -2
-21 -10 -40z m-861 8 c9 -14 14 -29 10 -32 -7 -7 -56 36 -56 49 0 18 31 7 46
-17z m723 2 c8 -11 6 -18 -10 -33 -20 -18 -20 -18 -10 8 5 14 7 29 4 32 -4 3
-4 6 -1 6 3 0 11 -6 17 -13z m-939 -7 c0 -5 -4 -10 -10 -10 -5 0 -10 5 -10 10
0 6 5 10 10 10 6 0 10 -4 10 -10z m-991 -141 l21 -26 -75 -32 c-41 -17 -76
-31 -79 -31 -2 0 -9 14 -15 31 -19 55 -13 99 20 151 l31 48 38 -58 c22 -31 48
-69 59 -83z m1090 132 c8 -5 11 -16 7 -26 -10 -28 32 -104 76 -135 21 -16 61
-34 87 -41 44 -11 50 -16 54 -43 5 -32 -20 -91 -39 -91 -6 0 -34 27 -63 60
-29 33 -67 67 -84 77 -27 14 -32 21 -29 48 4 32 3 32 -19 16 -13 -9 -27 -16
-32 -16 -12 0 -6 70 9 100 8 17 9 31 3 43 -11 19 5 23 30 8z m370 -25 c-3 -3
-11 5 -18 17 -13 21 -12 21 5 5 10 -10 16 -20 13 -22z m1960 -140 c-5 -27 -11
-51 -13 -54 -6 -6 -73 17 -119 40 -37 18 -38 20 -23 41 9 12 35 50 58 84 l41
62 33 -62 c30 -57 32 -66 23 -111z m-1419 129 c0 -15 -16 -41 -45 -71 -25 -25
-45 -52 -45 -60 0 -19 -16 -18 -24 3 -7 17 10 46 69 116 35 43 45 46 45 12z
m-344 -50 c14 -30 24 -59 22 -64 -2 -5 -19 10 -39 32 -29 34 -35 47 -28 65 5
12 11 22 14 22 3 0 17 -25 31 -55z m434 10 c-7 -8 -16 -13 -20 -10 -5 3 -11 1
-15 -5 -8 -13 -25 -13 -25 0 0 15 64 52 68 40 2 -6 -2 -17 -8 -25z m-1449 5
c-13 -11 -29 -20 -37 -20 -8 0 -14 -4 -14 -8 0 -7 -63 -42 -75 -42 -3 0 -4 5
-2 11 1 6 -4 14 -12 17 -9 3 -11 0 -6 -7 8 -13 -29 -54 -39 -44 -3 4 -14 -1
-23 -9 -23 -19 -53 -30 -53 -19 0 5 6 12 13 15 8 3 7 8 -6 16 -18 11 -18 13 2
26 25 18 108 44 115 36 3 -3 14 2 24 11 10 9 34 18 54 19 20 2 34 6 31 11 -2
4 8 7 24 7 l28 -1 -24 -19z m386 -17 c0 -17 -7 -16 -29 4 -25 23 -23 33 5 20
13 -6 24 -17 24 -24z m-578 14 c-2 -1 -23 -17 -46 -35 -43 -33 -73 -41 -73
-19 1 26 29 50 53 45 13 -3 32 1 42 9 10 7 21 11 23 8 3 -3 3 -6 1 -8z m527
-30 c15 -18 31 -31 35 -30 5 2 6 -3 3 -10 -7 -19 -81 -9 -89 11 -3 9 -1 18 4
20 19 6 12 22 -10 22 -26 0 -17 15 10 17 12 1 32 -12 47 -30z m244 -37 c36
-18 60 -35 53 -37 -19 -7 -126 54 -142 80 -13 21 -13 21 5 6 10 -9 48 -31 84
-49z m411 -50 c8 -27 6 -57 -9 -135 -11 -55 -21 -86 -21 -69 -1 17 4 55 9 84
6 29 8 55 6 57 -8 8 -45 -137 -52 -202 l-7 -70 -14 40 c-17 50 -11 79 40 188
l41 89 -16 46 c-14 38 -14 43 -2 27 8 -11 19 -35 25 -55z m-1261 24 c0 -10 -6
-14 -15 -10 -10 4 -15 -1 -16 -17 0 -21 -1 -21 -9 -2 -5 14 -3 24 8 33 21 16
32 15 32 -4z m1630 12 c0 -3 -4 -8 -10 -11 -5 -3 -10 -1 -10 4 0 6 5 11 10 11
6 0 10 -2 10 -4z m26 -40 c-9 -18 -16 -23 -19 -14 -2 7 2 21 11 31 21 24 25
15 8 -17z m117 -7 c5 -21 -1 -31 -38 -63 -52 -43 -60 -33 -12 17 17 19 32 41
31 48 0 15 6 32 11 27 1 -2 5 -15 8 -29z m1166 -41 c42 -22 78 -42 79 -44 10
-7 -44 -103 -96 -171 -32 -43 -66 -92 -74 -108 -22 -43 -47 -62 -90 -70 -32
-6 -38 -4 -53 19 -27 41 -64 151 -71 209 -6 49 -4 54 28 89 26 29 174 118 196
118 2 0 39 -19 81 -42z m-3209 4 c46 -22 50 -51 10 -80 -33 -25 -39 -52 -15
-72 8 -7 12 -17 8 -23 -4 -6 3 -8 20 -3 17 4 31 1 41 -9 8 -8 19 -15 25 -15 6
0 11 -4 11 -10 0 -5 -4 -10 -10 -10 -5 0 -10 -22 -10 -49 0 -71 -32 -115 -87
-119 -39 -3 -41 -2 -58 40 -9 24 -46 88 -82 142 -59 89 -94 161 -82 169 2 1
33 17 69 34 70 35 97 36 160 5z m2140 -25 c0 -32 -29 -72 -43 -58 -15 15 -27
14 -27 -1 0 -7 -13 -21 -30 -30 -18 -10 -32 -29 -38 -50 l-9 -33 -15 50 -15
50 36 38 c69 74 141 91 141 34z m-1650 -31 c7 -25 26 -57 42 -73 16 -15 38
-44 49 -65 10 -20 32 -46 49 -58 36 -26 40 -44 5 -28 -14 6 -25 17 -25 25 0 7
-9 13 -20 13 -21 0 -40 27 -33 48 7 17 -22 49 -51 56 -24 6 -46 43 -46 79 0
13 -5 28 -11 34 -6 6 -8 16 -4 23 11 18 31 -6 45 -54z m62 42 c-15 -15 -16
-32 -2 -23 6 4 10 -6 10 -24 0 -16 3 -38 7 -48 6 -17 6 -17 -15 0 -11 11 -25
32 -31 47 -8 23 -6 32 11 50 11 12 23 19 26 15 3 -3 0 -11 -6 -17z m50 0 c-7
-7 -12 -8 -12 -2 0 14 12 26 19 19 2 -3 -1 -11 -7 -17z m394 7 c14 -11 15 -14
3 -9 -10 3 -20 1 -24 -5 -4 -7 5 -11 23 -11 22 0 39 -11 65 -39 31 -35 64
-108 53 -119 -10 -9 -117 23 -133 40 -12 13 -19 41 -21 89 -4 72 1 80 34 54z
m-596 -11 c0 -2 -7 -4 -15 -4 -8 0 -15 4 -15 10 0 5 7 7 15 4 8 -4 15 -8 15
-10z m514 0 c14 -14 24 -94 11 -94 -2 0 -25 10 -50 22 -43 21 -59 48 -35 63 6
3 10 -1 10 -9 0 -15 46 -56 63 -56 6 0 -1 13 -16 28 -29 30 -36 62 -13 62 8 0
22 -7 30 -16z m-601 -6 c4 -10 8 -10 14 -1 6 8 21 7 60 -5 29 -10 53 -20 53
-23 0 -3 -16 -13 -35 -22 l-36 -17 -42 40 c-23 22 -37 40 -30 40 6 0 14 -6 16
-12z m462 -54 c20 -31 46 -82 56 -112 11 -31 28 -66 40 -78 l20 -21 -73 -6
-73 -6 -50 49 c-28 28 -55 50 -61 50 -10 0 -48 69 -42 75 2 1 13 6 26 10 16 4
22 3 20 -6 -2 -8 10 -13 31 -15 25 -1 40 5 57 24 13 14 24 20 24 13 0 -6 7
-11 15 -11 12 0 10 8 -10 37 -23 35 -31 53 -21 53 2 0 20 -25 41 -56z m-610 5
c-4 -5 -19 -15 -33 -21 -17 -7 -22 -12 -14 -15 8 -3 -4 -13 -28 -24 -49 -22
-59 -24 -42 -7 19 19 14 33 -6 15 -26 -24 -51 -22 -45 3 7 26 23 36 32 21 5
-8 15 -6 32 7 35 28 118 45 104 21z m1391 -106 c-4 -42 -10 -90 -13 -106 -4
-21 -3 -28 5 -23 7 4 12 18 12 30 0 13 9 34 19 47 l20 24 -13 -40 c-8 -22 -17
-74 -21 -115 l-8 -75 -13 60 c-7 33 -13 77 -13 98 -1 44 19 177 27 177 3 0 2
-34 -2 -77z m682 50 c-15 -15 -31 -23 -35 -19 -9 8 32 46 50 46 7 0 -1 -12
-15 -27z m161 -32 c-20 -28 -69 -58 -69 -43 1 20 40 53 88 71 1 1 -7 -12 -19
-28z m-2079 -12 c0 -4 -7 -5 -17 -2 -10 4 -14 2 -10 -4 4 -6 -4 -14 -17 -17
-13 -3 -32 -9 -43 -12 -15 -5 -15 -4 -3 5 17 12 10 14 -14 5 -9 -3 -13 -11 -9
-17 3 -5 2 -8 -3 -5 -5 3 -17 8 -28 12 -17 6 -16 8 9 28 15 12 40 21 56 21 15
0 26 4 23 8 -2 5 9 3 26 -2 16 -6 30 -15 30 -20z m1970 -11 c0 -18 -1 -18 -24
-1 -18 13 -21 21 -14 31 14 16 38 -3 38 -30z m140 -6 c0 -21 -114 -102 -126
-89 -12 12 14 41 60 67 54 31 66 35 66 22z m-1912 -36 c-7 -8 -15 -12 -17 -11
-5 6 10 25 20 25 5 0 4 -6 -3 -14z m-348 -5 c-8 -6 -18 -7 -22 -5 -4 3 -8 0
-8 -6 0 -6 -5 -8 -10 -5 -17 11 -1 25 28 25 20 0 23 -3 12 -9z m2295 -20 c-3
-6 5 -16 17 -22 29 -16 118 -20 118 -6 0 8 3 8 11 0 9 -9 9 -78 -1 -158 -1 -5
2 -37 6 -69 8 -69 -5 -86 -65 -86 -28 0 -33 3 -21 11 11 8 8 9 -14 4 -40 -9
-73 17 -102 78 -22 46 -24 48 -18 17 8 -43 34 -81 68 -100 24 -12 26 -19 26
-75 0 -33 -5 -66 -11 -72 -8 -8 -8 -17 1 -33 14 -26 6 -38 -15 -20 -8 7 -15 8
-15 2 0 -5 6 -12 14 -15 8 -3 22 -17 31 -30 13 -21 14 -32 4 -71 -6 -25 -14
-46 -17 -46 -3 0 -15 8 -26 18 -18 16 -18 14 2 -15 26 -37 27 -42 5 -88 -16
-32 -18 -34 -34 -19 -23 21 -53 109 -46 136 4 13 -3 33 -17 52 -32 42 -37 64
-27 109 5 20 5 37 1 37 -4 0 -26 -28 -49 -63 -38 -59 -68 -92 -115 -128 -11
-8 -3 10 18 41 65 95 105 174 111 220 l5 45 -16 -43 c-19 -52 -104 -147 -155
-172 -20 -11 -55 -22 -76 -26 -62 -10 -73 -22 -62 -74 8 -44 2 -146 -9 -135
-3 2 -11 46 -18 97 -12 87 -12 94 5 108 21 17 39 69 75 217 13 57 39 130 58
164 29 55 39 65 86 86 30 13 68 35 86 48 36 27 123 67 184 84 2 1 1 -3 -3 -8z
m-2245 -25 c6 -8 17 -13 24 -10 7 3 18 -2 25 -10 10 -12 0 -32 -53 -113 -104
-156 -95 -149 -95 -63 -1 93 13 147 47 183 30 31 35 32 52 13z m1475 -28 c-5
-32 -3 -39 5 -28 8 12 9 9 4 -12 -4 -17 -2 -28 4 -28 26 0 1 -74 -53 -155 -31
-47 -58 -85 -61 -85 -7 0 13 35 62 108 46 69 50 86 34 142 -5 19 -7 50 -4 67
9 48 17 40 9 -9z m575 17 c-7 -9 -15 -13 -18 -10 -3 2 1 11 8 20 7 9 15 13 18
10 3 -2 -1 -11 -8 -20z m-1955 5 c3 -5 1 -10 -4 -10 -6 0 -11 5 -11 10 0 6 2
10 4 10 3 0 8 -4 11 -10z m210 0 c5 -8 11 -8 19 -1 9 8 35 -1 92 -31 78 -41
79 -41 219 -48 115 -5 149 -10 185 -28 60 -29 150 -116 150 -145 0 -6 -10 3
-21 21 -15 23 -48 45 -114 79 -77 38 -106 47 -160 50 -66 3 -82 -9 -26 -20 39
-8 87 -53 106 -99 8 -21 13 -38 10 -38 -6 0 -165 46 -190 56 -11 4 14 -28 56
-72 72 -75 136 -161 126 -170 -2 -3 -23 2 -46 9 -51 18 -52 10 -4 -22 28 -18
57 -25 124 -31 94 -7 103 -11 164 -77 33 -36 49 -45 93 -53 96 -17 128 -50
151 -149 11 -49 26 -72 18 -26 -4 17 -9 57 -13 90 -8 75 -15 88 -61 116 -98
58 -143 127 -156 237 -6 53 2 53 28 0 11 -22 40 -57 65 -76 l45 -36 -31 34
c-40 45 -84 105 -84 114 0 15 190 -166 211 -201 12 -19 23 -32 26 -29 9 9 -35
92 -81 150 -43 56 -63 107 -33 90 69 -41 106 -95 132 -192 12 -47 12 -47 20
-17 16 69 27 92 56 128 28 34 98 87 114 87 17 0 -14 -52 -60 -100 -29 -31 -60
-70 -69 -88 -19 -37 -37 -82 -32 -82 1 0 24 27 49 60 26 33 75 81 110 106 34
25 70 55 79 67 10 12 18 18 18 14 0 -19 -48 -76 -135 -162 -50 -49 -73 -74
-51 -54 23 19 61 51 85 69 24 19 57 52 73 74 l30 41 -7 -40 c-8 -44 -38 -109
-63 -139 -10 -10 -37 -32 -62 -49 -54 -36 -130 -107 -130 -121 0 -6 14 5 30
24 l30 35 -6 -40 c-8 -46 -26 -86 -47 -104 -12 -9 -19 -7 -37 16 -15 20 -19
22 -14 8 4 -11 9 -47 11 -80 5 -61 5 -61 -36 -98 -40 -36 -51 -60 -31 -72 6
-3 10 -2 10 3 0 5 18 22 41 36 l41 27 39 -27 c34 -23 39 -32 39 -65 0 -27 -4
-37 -13 -33 -8 3 -11 17 -9 42 3 20 2 34 -2 31 -3 -3 -7 -26 -8 -50 -1 -24 -5
-51 -9 -59 -4 -8 -10 -24 -14 -35 -5 -16 -8 -17 -15 -5 -7 11 -10 6 -11 -20
-1 -34 -1 -34 -14 13 -7 26 -20 59 -29 72 -9 13 -16 34 -16 45 0 12 -4 18 -10
15 -5 -3 -10 -17 -10 -29 0 -13 -6 -29 -14 -35 -11 -9 -15 -7 -20 11 -3 13 -6
31 -6 40 0 9 -21 60 -46 113 -45 92 -49 98 -120 145 -40 28 -77 50 -82 50 -24
0 -34 31 -27 86 l7 57 36 -74 c44 -87 76 -114 138 -114 42 0 45 -2 54 -35 6
-19 10 -43 10 -52 0 -10 5 -18 10 -18 11 0 13 80 4 128 -6 30 -7 31 -53 25
-60 -7 -81 10 -130 107 l-37 75 -56 3 c-35 2 -71 -3 -93 -13 -35 -14 -37 -17
-31 -46 3 -17 6 -48 7 -68 l0 -36 16 50 16 50 9 -40 c9 -39 63 -241 74 -278 3
-11 -38 18 -95 65 -134 110 -224 178 -230 172 -3 -2 11 -19 30 -37 50 -47 250
-282 277 -325 20 -32 23 -46 18 -100 -3 -34 -10 -70 -15 -80 -8 -14 -11 -12
-17 13 -5 17 -8 33 -9 37 -1 20 -16 15 -43 -16 l-30 -35 -4 62 c-3 52 0 68 19
97 13 19 23 41 23 50 -1 8 -7 3 -16 -12 -15 -28 -30 -39 -21 -15 3 7 -5 13
-19 13 -15 1 -21 -2 -17 -9 10 -16 14 -113 8 -162 -3 -23 -15 -56 -26 -75
l-21 -33 -20 32 c-19 29 -20 38 -10 79 6 26 8 59 5 73 -4 20 1 31 17 42 22 15
11 35 -11 21 -14 -8 -29 13 -29 41 0 11 9 38 21 59 20 37 20 41 4 82 -9 24
-21 46 -25 49 -5 3 0 -15 11 -40 15 -35 17 -49 9 -65 -13 -24 -25 -27 -16 -3
4 10 4 14 0 10 -4 -4 -16 1 -27 10 -22 20 -16 2 10 -28 20 -24 7 -72 -18 -64
-14 5 -19 -1 -23 -27 -3 -18 -5 -46 -4 -63 1 -37 -43 -145 -59 -145 -21 0 -24
19 -8 50 10 19 13 39 8 57 -4 16 -6 34 -5 40 2 7 -3 10 -11 7 -18 -7 -38 61
-37 124 1 70 -5 111 -19 125 -10 10 -10 6 -2 -16 16 -41 15 -41 -26 -8 -20 17
-39 28 -42 25 -3 -2 6 -12 19 -21 35 -25 60 -51 60 -65 0 -7 -16 4 -37 23 -37
35 -36 26 4 -27 13 -17 23 -39 23 -48 0 -10 8 -47 17 -82 l17 -64 -27 -27 -27
-28 0 40 c0 22 -11 63 -25 90 -13 28 -25 57 -25 65 0 25 -21 92 -26 87 -3 -3
0 -33 7 -66 6 -34 10 -64 7 -66 -3 -3 -22 22 -42 55 -31 50 -37 67 -32 94 7
35 39 70 99 105 20 13 37 27 37 33 0 6 -8 4 -17 -4 -39 -33 -44 -32 -38 14 l6
43 -15 -39 c-8 -21 -18 -41 -23 -45 -4 -3 -23 -19 -40 -35 l-33 -30 0 25 c0
26 63 131 96 161 15 13 38 16 112 16 81 -1 96 1 123 21 17 13 28 25 25 28 -3
4 -14 -1 -25 -11 -19 -17 -40 -21 -98 -18 -27 2 -33 6 -33 26 0 13 9 35 20 49
23 30 24 42 5 82 l-15 30 6 -43 c4 -31 2 -48 -9 -60 -8 -9 -17 -29 -21 -44 -4
-18 -14 -29 -29 -32 -98 -20 -106 -16 -52 27 27 21 34 34 31 52 -3 14 1 37 9
52 7 16 16 51 19 78 l6 50 -14 -53 c-7 -30 -18 -63 -23 -75 -6 -12 -18 -39
-26 -59 -9 -21 -21 -38 -27 -38 -13 0 -13 53 1 67 7 7 4 20 -10 44 -21 33 -30
34 -12 1 14 -28 -3 -181 -23 -200 -16 -16 -17 -15 -7 11 22 59 6 98 -54 133
-17 10 -18 12 -2 44 9 18 17 44 17 57 0 16 14 37 40 60 28 26 40 44 39 62 -1
21 -2 22 -6 6 -3 -11 -10 -26 -16 -33 -9 -11 -12 -11 -18 5 -11 26 -11 65 0
59 5 -3 12 1 15 10 4 10 2 13 -6 8 -7 -4 -8 -3 -4 5 10 15 26 5 27 -17 0 -9 5
-2 10 16 8 27 20 38 62 58 59 27 45 33 -20 8 -24 -9 -43 -22 -43 -29 0 -7 -11
-16 -25 -19 -29 -7 -40 -40 -32 -93 5 -29 3 -36 -12 -40 -14 -3 -20 -18 -25
-52 -5 -36 -14 -55 -40 -80 -38 -36 -45 -35 -113 17 -40 30 -43 22 -5 -13 35
-34 68 -51 114 -59 77 -14 95 -82 41 -154 -19 -26 -25 -46 -26 -97 -1 -36 -6
-65 -11 -65 -6 0 -20 10 -33 22 -13 12 -23 17 -23 10 0 -6 12 -20 28 -31 15
-12 32 -25 38 -30 6 -5 15 -29 18 -53 6 -34 14 -47 39 -64 23 -14 31 -27 30
-43 -2 -12 1 -20 5 -17 4 2 13 -4 20 -15 8 -12 9 -19 2 -19 -15 0 -71 29 -93
48 -16 15 -17 14 -11 -1 3 -10 18 -24 33 -33 l26 -15 -33 5 c-18 3 -31 2 -28
-3 3 -4 33 -11 67 -14 34 -3 66 -10 72 -16 17 -17 57 -135 49 -143 -4 -3 -19
-10 -34 -13 -23 -6 -28 -4 -28 12 0 10 -6 25 -12 31 -10 10 -10 15 1 21 9 6
10 11 2 15 -6 4 -11 1 -11 -6 0 -10 -3 -9 -11 2 -12 17 -10 5 9 -57 8 -26 7
-36 -4 -48 -20 -20 -27 -19 -50 6 -10 11 -28 26 -39 32 -17 9 -18 8 -8 -5 7
-8 9 -19 5 -23 -4 -5 -2 -5 4 -2 6 4 19 -2 29 -13 22 -24 42 -25 65 -5 10 9
33 18 52 21 42 7 46 -1 55 -93 5 -56 4 -63 -12 -63 -17 0 -17 -1 -2 -17 19
-21 12 -69 -26 -181 l-24 -72 -13 30 c-15 37 -25 30 -38 -30 -8 -39 -10 -41
-12 -15 -1 17 -5 39 -9 50 -6 16 -9 14 -15 -15 l-7 -35 -27 49 -27 49 -5 -34
c-6 -37 -11 -29 -26 41 -6 30 -8 32 -15 15 -4 -11 -9 -33 -10 -50 -1 -17 -5
-3 -9 30 -6 60 -7 60 -28 2 -6 -15 -13 -10 -43 30 -89 121 -141 233 -187 402
-24 89 -26 112 -26 316 -1 150 3 242 13 290 30 151 130 392 200 478 16 21 33
47 36 58 5 15 12 18 33 12 36 -10 81 -8 93 4 7 7 -6 9 -39 5 -62 -5 -75 11
-30 38 36 22 83 26 93 10z m-145 -25 c-7 -9 -15 -13 -19 -10 -3 3 1 10 9 15
21 14 24 12 10 -5z m1860 5 c0 -10 -91 -62 -98 -55 -9 9 18 56 28 50 6 -3 10
-3 10 2 0 4 14 9 30 10 17 1 30 -2 30 -7z m499 -140 c115 -182 184 -397 203
-629 12 -137 11 -145 -6 -155 -10 -6 -34 -21 -53 -33 -39 -26 -44 -28 -37 -10
2 7 -9 20 -25 30 -29 17 -30 20 -33 108 -2 49 1 94 6 99 5 5 -1 22 -13 39 -27
37 -40 42 -16 5 24 -37 13 -54 -36 -54 -32 0 -39 3 -31 13 6 6 11 28 13 47 2
28 -4 42 -29 69 -35 36 -41 28 -16 -20 18 -37 12 -61 -13 -52 -15 5 -16 3 -5
-8 6 -7 12 -19 12 -26 0 -21 -20 -15 -29 10 -9 22 -51 66 -51 53 0 -4 8 -23
19 -44 10 -20 21 -49 25 -65 6 -26 5 -27 -21 -22 l-28 6 28 -16 c28 -16 39
-52 13 -42 -11 4 -16 -8 -21 -54 -8 -69 -27 -78 -67 -30 -49 57 -53 84 -30
164 12 40 23 89 26 111 3 21 16 59 29 85 13 25 28 57 32 71 7 24 7 24 -9 5
-15 -20 -15 -19 -16 6 0 35 51 136 93 181 25 28 36 50 39 83 3 25 2 45 -3 45
-5 0 -10 -10 -11 -22 -1 -13 -2 -30 -3 -38 -1 -21 -14 -40 -27 -40 -10 0 -9
12 7 55 5 16 5 17 -4 5 -21 -30 -26 4 -22 155 l2 70 24 -30 c14 -16 52 -73 84
-125z m-625 103 c-7 -40 -43 -103 -58 -103 -18 0 6 86 31 112 15 16 28 28 30
28 2 0 1 -17 -3 -37z m-291 -96 c-20 -59 -38 -105 -41 -102 -3 2 12 52 33 110
21 58 39 104 41 102 2 -2 -12 -52 -33 -110z m-767 -18 c73 -41 94 -58 109 -87
l17 -37 -21 19 c-11 10 -18 22 -16 27 3 4 0 11 -6 15 -8 5 -9 3 -4 -6 5 -8 3
-11 -6 -8 -8 3 -14 10 -14 16 0 5 -4 14 -9 19 -6 5 -6 2 -1 -6 6 -11 4 -13
-11 -7 -42 17 -49 19 -42 11 4 -4 29 -22 55 -39 47 -31 93 -86 93 -113 0 -7
-13 1 -30 20 -16 18 -46 41 -67 51 -30 13 -45 30 -71 81 -32 61 -42 69 -112
99 -8 3 -1 4 15 0 17 -3 71 -28 121 -55z m578 -28 c-28 -43 -42 -55 -24 -21 6
11 8 20 4 20 -4 0 3 11 16 25 34 36 36 24 4 -24z m-1635 -17 c48 -60 45 -113
-7 -150 -20 -13 -21 -11 -36 40 -9 30 -27 68 -41 84 -30 35 -30 39 -7 45 45
12 71 6 91 -19z m1578 -6 c-3 -7 -5 -2 -5 12 0 14 2 19 5 13 2 -7 2 -19 0 -25z
m1603 17 c5 -3 -6 -26 -25 -50 -18 -25 -39 -61 -46 -80 -15 -40 -20 -41 -54
-19 -28 18 -31 43 -14 95 20 58 38 72 87 65 24 -3 48 -8 52 -11z m-3344 -29
c5 -14 -45 -105 -60 -106 -4 0 -6 6 -3 13 2 7 1 34 -3 60 l-7 47 34 0 c19 0
36 -6 39 -14z m3480 -41 c-6 -30 -13 -55 -16 -55 -7 0 -50 86 -50 100 0 6 17
10 38 10 l38 0 -10 -55z m-1506 15 c-11 -16 -26 -33 -32 -36 -7 -4 1 9 16 29
34 44 46 50 16 7z m-2082 -36 c8 -34 7 -59 -3 -93 -15 -52 -77 -200 -85 -201
-3 0 -16 36 -29 80 -20 68 -22 86 -13 118 11 36 95 142 112 142 5 0 13 -21 18
-46z m1863 19 c-12 -20 -14 -14 -5 12 4 9 9 14 11 11 3 -2 0 -13 -6 -23z
m1822 -9 c44 -50 77 -105 77 -129 0 -21 -43 -161 -52 -170 -2 -3 -24 43 -47
102 -38 93 -43 114 -38 160 5 50 12 73 23 73 2 0 19 -16 37 -36z m-2422 -20
c129 -57 157 -78 220 -165 28 -38 59 -74 70 -79 10 -6 19 -15 19 -21 0 -17
-43 12 -84 58 -44 51 -74 68 -134 78 -33 5 -46 13 -57 36 -9 16 -45 52 -80 81
-92 73 -92 73 46 12z m699 31 c-7 -9 -15 -13 -19 -10 -3 3 1 10 9 15 21 14 24
12 10 -5z m1593 -137 c78 -157 117 -258 117 -303 0 -32 -22 -76 -70 -140 -39
-52 -94 -92 -104 -76 -4 5 -13 63 -22 128 -8 65 -26 168 -40 228 -41 178 -41
177 -5 250 18 36 36 65 40 65 5 0 43 -69 84 -152z m-3380 105 c28 -65 30 -105
9 -209 -12 -55 -26 -146 -32 -204 -16 -149 -29 -210 -45 -210 -19 0 -96 88
-129 150 -35 64 -35 95 0 180 44 109 161 330 175 330 3 0 13 -17 22 -37z
m2716 -19 c-15 -16 -26 -21 -32 -15 -7 7 -2 17 14 30 32 26 46 15 18 -15z
m-77 -21 c23 -21 23 -30 -3 -88 -26 -59 -39 -46 -39 43 0 66 9 75 42 45z
m-2491 -120 c-49 -167 -77 -421 -64 -583 7 -88 -2 -85 -41 14 l-27 69 11 131
c12 134 31 262 51 329 10 36 76 123 86 113 2 -2 -5 -35 -16 -73z m3003 12 c42
-63 85 -269 88 -415 2 -87 -1 -100 -29 -159 l-30 -64 -6 179 c-6 183 -25 303
-66 434 -11 36 -21 68 -21 73 0 13 48 -23 64 -48z m-1198 -127 c-30 -63 -62
-121 -72 -129 -10 -8 -37 -14 -66 -13 l-48 0 0 -75 c1 -44 7 -89 15 -106 14
-30 14 -30 9 16 -6 45 16 121 33 118 41 -7 69 5 105 43 21 23 38 38 38 35 0
-4 -31 -41 -70 -83 -38 -41 -70 -80 -70 -86 0 -6 -14 -41 -30 -77 l-31 -66
-56 54 c-50 49 -55 56 -50 88 9 51 66 168 97 198 18 18 52 33 96 43 l69 17 38
73 c60 113 55 78 -7 -50z m1655 23 c-12 -77 -31 -133 -38 -114 -8 21 34 200
44 190 2 -3 0 -37 -6 -76z m-1679 42 c-6 -10 -20 -27 -33 -38 -19 -17 -18 -14
6 23 27 41 47 53 27 15z m-2227 -113 c4 -29 4 -41 -3 -35 -12 13 -32 97 -31
132 1 25 2 24 14 -12 7 -23 16 -61 20 -85z m2743 51 c29 -64 28 -75 -3 -67
-26 7 -26 7 -6 -13 11 -11 23 -33 26 -48 24 -110 102 -281 146 -317 17 -14 35
-43 41 -63 9 -35 8 -39 -18 -60 -35 -28 -40 -28 -47 -4 -6 23 -50 53 -80 55
-21 1 -22 4 -18 82 3 70 1 82 -14 88 -13 5 -16 14 -12 36 5 24 1 33 -23 54
-30 25 -106 43 -134 33 -10 -4 -13 -1 -10 8 5 11 0 12 -27 5 -18 -5 -34 -9
-35 -7 -1 1 34 49 77 107 43 58 85 117 91 133 7 15 15 27 18 27 3 0 15 -22 28
-49z m-1706 17 c-7 -7 -12 -8 -12 -2 0 14 12 26 19 19 2 -3 -1 -11 -7 -17z
m-112 -141 c0 -2 -10 -12 -22 -23 l-23 -19 19 23 c18 21 26 27 26 19z m2246
-143 c0 -63 -2 -72 -14 -60 -8 8 -23 38 -34 68 l-19 53 5 -43 c4 -39 2 -44
-21 -53 -13 -5 -26 -9 -28 -9 -3 0 -3 19 -1 43 2 23 4 50 5 59 1 13 11 16 54
16 l53 -1 0 -73z m-1489 -37 c44 -48 67 -105 83 -209 11 -69 -1 -125 -29 -142
-6 -4 -11 -12 -11 -18 0 -6 7 -5 18 3 9 8 5 -2 -9 -21 -15 -19 -33 -35 -40
-35 -7 0 -38 -32 -68 -72 -53 -69 -75 -88 -51 -44 13 25 3 27 -22 4 -21 -19
-24 -43 -5 -43 7 -1 5 -6 -5 -14 -10 -7 -18 -20 -18 -28 0 -22 -23 -38 -39
-29 -8 5 -11 13 -7 19 13 22 -17 23 -40 1 -13 -12 -26 -20 -29 -18 -2 3 19 45
47 94 28 50 62 115 74 146 31 75 48 213 41 327 -4 50 -5 92 -3 92 2 0 17 -23
35 -51 30 -49 57 -116 81 -208 16 -61 34 -39 28 36 -6 73 -55 190 -109 262
l-41 55 39 -32 c22 -17 58 -51 80 -75z m863 54 c0 -5 -9 -11 -19 -14 -21 -5
-49 -47 -31 -47 21 0 9 -18 -30 -44 l-41 -27 27 43 c48 77 65 98 80 98 8 0 14
-4 14 -9z m110 -11 c12 -7 10 -9 -8 -7 -12 0 -22 5 -22 9 0 11 12 10 30 -2z
m-409 -77 c-60 -112 -336 -442 -355 -423 -5 5 34 54 97 122 110 117 244 292
267 349 8 18 16 27 18 21 2 -6 -10 -37 -27 -69z m359 67 c-20 -13 -33 -13 -25
0 3 6 14 10 23 10 15 0 15 -2 2 -10z m-26 -35 c-25 -19 -40 -19 -24 0 7 8 20
15 28 15 13 0 12 -3 -4 -15z m576 -47 c16 -22 30 -49 30 -59 0 -10 -18 -30
-39 -46 -40 -28 -50 -42 -72 -98 l-12 -30 -8 45 c-4 25 -8 73 -8 108 -1 57 2
66 28 93 16 16 34 29 40 29 6 0 24 -19 41 -42z m-413 0 c17 -16 23 -32 23 -62
l0 -41 -20 43 c-20 44 -28 50 -47 31 -9 -9 -18 -8 -37 5 -15 9 -26 21 -26 27
0 8 4 8 14 0 10 -8 16 -9 21 -1 3 6 10 8 15 5 5 -3 11 -1 15 5 9 15 16 13 42
-12z m-127 1 c0 -7 -36 -19 -60 -19 -9 1 -6 6 8 14 26 14 52 17 52 5z m-2470
-79 c52 -52 133 -180 113 -180 -16 0 -141 81 -185 120 l-48 41 20 40 c11 21
25 39 30 39 6 0 37 -27 70 -60z m3190 -115 c-28 -201 -104 -379 -219 -512 -23
-28 -35 -30 -22 -5 12 22 -10 206 -27 239 -23 42 -22 46 79 270 22 50 35 66
67 82 22 11 42 27 45 35 3 8 23 26 44 39 l38 24 3 -46 c2 -25 -2 -82 -8 -126z
m476 144 l16 -31 -44 -45 c-37 -38 -166 -133 -181 -133 -3 0 11 31 30 69 32
65 127 171 152 171 6 0 18 -14 27 -31z m-1617 -74 c-38 -51 -60 -72 -43 -42
12 20 75 97 80 97 3 0 -14 -25 -37 -55z m476 45 c3 -5 1 -10 -4 -10 -6 0 -11
5 -11 10 0 6 2 10 4 10 3 0 8 -4 11 -10z m-195 -14 c0 -9 -10 -13 -25 -12 -31
1 -33 13 -2 19 12 2 23 5 25 6 1 0 2 -5 2 -13z m140 3 c0 -6 7 -8 18 -4 14 5
15 4 4 -6 -10 -11 -15 -10 -29 4 -11 11 -13 17 -5 17 7 0 12 -5 12 -11z m-208
-21 c3 -19 8 -22 48 -20 71 4 85 3 111 -7 20 -8 21 -10 5 -10 -16 -1 -17 -4
-8 -13 10 -10 7 -15 -10 -24 -22 -12 -21 -13 17 -19 58 -10 62 -11 68 -34 4
-18 1 -21 -27 -21 -37 0 -72 -31 -63 -55 8 -19 51 -20 67 0 10 13 9 15 -8 15
-23 0 -37 15 -23 25 6 3 22 3 36 -1 28 -7 33 -32 13 -64 -10 -15 -10 -24 -2
-38 18 -28 -8 -82 -39 -82 -27 0 -47 -17 -47 -42 0 -18 33 -42 44 -31 3 3 6 2
6 -4 0 -5 -9 -18 -20 -28 -34 -31 -15 -28 34 5 54 37 76 36 47 -2 -15 -19 -18
-28 -9 -31 14 -6 7 -7 -55 -10 -20 -1 -37 2 -37 6 0 5 -10 5 -22 2 -13 -4 -31
-9 -40 -11 -11 -3 -17 2 -20 18 -2 13 -11 24 -23 26 -29 5 -45 31 -45 73 0 46
15 59 25 21 7 -30 23 -52 36 -52 8 0 39 52 39 66 0 3 -9 -4 -19 -17 l-19 -24
-12 26 c-11 23 -7 35 35 113 26 48 45 89 43 92 -3 2 -42 7 -87 11 -91 7 -87 1
-70 100 11 63 25 82 31 41z m193 1 c7 -8 -18 -8 -67 0 -5 0 -8 5 -8 11 0 11
60 2 75 -11z m-1332 -18 c3 -11 -1 -25 -8 -31 -9 -8 -14 -5 -18 11 -6 24 1 51
13 44 4 -3 10 -14 13 -24z m1472 -1 c10 -11 15 -23 12 -27 -4 -3 -16 2 -27 12
-21 19 -29 8 -8 -13 8 -8 5 -14 -16 -22 -23 -8 -32 -7 -53 10 l-26 20 44 20
c54 24 52 24 74 0z m-489 -67 c-14 -26 -25 -45 -26 -41 0 12 43 98 48 94 2 -2
-8 -26 -22 -53z m-37 -20 c-43 -85 -65 -199 -53 -273 7 -42 7 -57 0 -50 -19
19 -20 162 -2 221 14 49 70 159 80 159 3 0 -9 -26 -25 -57z m-1076 -33 c-9
-16 -19 -27 -21 -25 -8 8 20 65 29 59 5 -3 2 -18 -8 -34z m1666 30 c24 -12 38
-51 46 -124 6 -50 12 -65 42 -95 28 -28 34 -42 34 -75 0 -129 -20 -146 -56
-48 -25 69 -64 120 -76 101 -4 -7 -5 -18 -2 -26 3 -7 0 -20 -7 -28 -10 -13 -9
-15 11 -15 16 0 20 -3 13 -10 -9 -9 -46 3 -84 28 -3 2 3 8 13 13 20 12 22 40
5 57 -9 9 -4 20 25 46 33 30 37 39 37 85 0 31 -4 51 -11 51 -6 0 -8 -7 -5 -16
5 -12 -14 -58 -42 -103 -1 -3 -8 1 -14 7 -9 9 -7 16 5 30 20 22 21 39 2 72
-14 24 -16 23 -19 -9 -2 -25 -26 -24 -26 1 0 13 -3 33 -6 46 -6 21 -3 22 45
22 29 0 60 -4 70 -10z m147 -128 c-6 -6 -45 39 -46 52 0 5 8 18 18 29 16 19
17 18 25 -28 4 -26 6 -50 3 -53z m-1482 72 c3 -9 6 -25 5 -37 0 -25 -68 -131
-84 -132 -5 0 -11 16 -13 35 -2 27 6 49 35 93 41 61 47 66 57 41z m-1277 -69
c5 -3 -32 -85 -38 -85 -7 0 -41 82 -54 129 -7 25 -10 26 92 -44z m3557 33
c-19 -63 -46 -128 -53 -128 -7 0 -22 55 -25 92 -1 8 64 57 77 58 5 0 5 -10 1
-22z m-2588 -17 c16 -12 21 -22 14 -26 -12 -7 -50 21 -50 37 0 13 10 10 36
-11z m658 -27 c-16 -21 -41 -41 -54 -46 -20 -7 -14 2 24 41 56 57 75 60 30 5z
m42 1 c-15 -19 -32 -35 -38 -35 -6 0 5 17 23 38 42 47 52 45 15 -3z m341 -47
c-2 -13 -4 -5 -4 17 -1 22 1 32 4 23 2 -10 2 -28 0 -40z m-235 15 c-6 -10 -22
-29 -36 -42 -38 -36 -33 -4 6 36 33 34 46 37 30 6z m-722 8 c0 -11 -26 -22
-34 -14 -12 12 -5 23 14 23 11 0 20 -4 20 -9z m1450 -25 c0 -7 -9 -16 -20 -19
-23 -6 -25 -2 -7 18 16 18 27 19 27 1z m-10 -36 c0 -5 -8 -10 -17 -10 -15 0
-16 2 -3 10 19 12 20 12 20 0z m-916 -12 c-23 -39 -49 -68 -61 -68 -12 0 -17
-13 -14 -33 1 -5 -2 -6 -7 -3 -5 3 -16 -4 -25 -15 -17 -19 -9 -27 9 -9 6 6 14
3 22 -10 10 -16 10 -20 -2 -20 -7 0 -25 -9 -39 -20 -25 -20 -46 -13 -31 11 3
6 0 15 -7 20 -12 8 -11 11 1 22 9 6 34 38 57 70 38 53 42 56 48 36 l8 -23 19
27 c20 27 36 38 22 15z m-344 -73 c-18 -36 -35 -63 -37 -61 -2 2 11 33 29 70
17 36 34 63 37 61 2 -3 -11 -34 -29 -70z m883 42 c-3 -5 -9 -3 -14 4 -4 7 -5
17 -2 22 3 5 9 3 14 -4 4 -7 5 -17 2 -22z m-454 -4 c27 7 26 -1 -3 -36 -15
-19 -28 -26 -39 -21 -9 3 -14 11 -10 17 4 7 0 8 -11 4 -14 -6 -14 -2 5 24 15
22 24 27 29 18 5 -6 17 -9 29 -6z m-1570 -50 c19 -32 63 -95 99 -141 48 -63
61 -87 52 -96 -12 -12 -18 -7 -95 100 -44 60 -111 194 -97 194 4 0 23 -26 41
-57z m3292 -35 c-50 -100 -138 -215 -153 -200 -7 7 9 37 49 94 33 46 77 109
98 141 21 31 40 55 43 53 2 -3 -14 -42 -37 -88z m-2289 50 c18 -18 36 -32 41
-30 4 1 7 -2 7 -8 0 -16 -53 -12 -78 6 -21 15 -29 44 -15 57 9 10 9 10 45 -25z
m-21 -55 c37 -19 39 -22 14 -17 -45 10 -72 21 -80 34 -3 5 -11 8 -16 5 -13 -9
-11 19 3 33 10 10 15 7 24 -10 6 -12 31 -32 55 -45z m1094 14 c8 -20 11 -37 6
-37 -5 0 -11 10 -14 23 -2 12 -8 31 -12 42 -14 35 4 10 20 -28z m-2136 -47
c18 -33 56 -92 86 -131 30 -40 52 -76 49 -80 -32 -52 -184 145 -184 239 0 17
4 32 9 32 4 0 23 -27 40 -60z m2039 -3 c1 -50 -10 -72 -32 -64 -22 9 -20 28 2
20 13 -5 15 -3 5 7 -17 18 -43 5 -44 -22 -1 -14 -3 -17 -6 -8 -6 25 25 90 43
90 12 0 15 6 11 21 -4 16 -3 18 8 9 7 -6 13 -29 13 -53z m1382 -74 c-18 -36
-52 -85 -76 -110 -36 -39 -46 -44 -58 -33 -19 15 -13 27 50 112 24 32 58 85
76 116 l33 57 3 -39 c2 -28 -5 -57 -28 -103z m-1670 107 c0 -5 -2 -10 -4 -10
-3 0 -8 5 -11 10 -3 6 -1 10 4 10 6 0 11 -4 11 -10z m829 -6 c25 23 24 24 25
-81 1 -77 0 -80 -13 -55 l-15 27 -12 -40 c-9 -31 -13 -36 -19 -22 -7 16 -8 16
-20 1 -14 -20 -20 -12 -30 41 l-7 40 -13 -33 c-16 -37 -30 -41 -45 -13 -15 30
-12 48 10 54 14 3 20 14 20 31 0 19 5 26 20 26 13 0 20 7 20 20 0 18 1 18 29
2 28 -16 31 -15 50 2z m-1339 -3 c0 -5 -7 -11 -14 -14 -10 -4 -13 -1 -9 9 6
15 23 19 23 5z m-264 -84 c-15 -79 -27 -102 -37 -67 -19 67 -4 130 30 130 17
0 18 -4 7 -63z m234 41 c0 22 20 12 30 -14 7 -19 7 -31 -1 -40 -14 -17 -29 -9
-29 17 0 16 -4 19 -22 14 -17 -6 -20 -4 -15 10 4 9 7 22 7 28 0 7 7 3 15 -7 8
-11 15 -14 15 -8z m113 -14 c20 -41 23 -68 4 -39 -20 31 -37 75 -29 75 4 0 15
-16 25 -36z m845 -28 c2 -27 -1 -36 -12 -36 -21 0 -37 33 -34 70 2 27 4 29 23
16 13 -8 21 -27 23 -50z m-1139 6 c14 -12 14 -13 -4 -10 -14 2 -21 12 -22 33
-1 18 1 22 4 10 3 -11 13 -25 22 -33z m441 28 c0 -5 -5 -10 -11 -10 -5 0 -7
-5 -4 -11 4 -6 13 -8 21 -5 9 3 14 -1 14 -13 0 -14 -5 -18 -20 -14 -26 7 -33
18 -25 43 7 21 25 28 25 10z m-380 -30 c0 -5 5 -10 11 -10 5 0 7 5 3 12 -4 7
-3 8 5 4 6 -4 9 -11 6 -16 -3 -5 -1 -11 5 -15 13 -8 13 -26 1 -22 -5 1 -17 -7
-25 -18 -8 -11 -16 -15 -16 -8 0 8 -16 4 -45 -11 -53 -29 -58 -21 -12 21 26
24 38 28 51 21 24 -14 32 -2 12 17 -18 18 -21 35 -6 35 6 0 10 -4 10 -10z
m1260 0 c0 -5 -5 -10 -11 -10 -5 0 -7 5 -4 10 3 6 8 10 11 10 2 0 4 -4 4 -10z
m40 -2 c0 -6 -7 -19 -16 -29 -14 -16 -14 -18 5 -24 12 -3 21 -11 21 -16 0 -14
-12 -11 -55 16 -25 15 -33 24 -22 25 9 0 25 9 34 20 20 22 33 26 33 8z m-593
-50 c-3 -7 -5 -2 -5 12 0 14 2 19 5 13 2 -7 2 -19 0 -25z m-1467 -15 c0 -3
-22 -30 -50 -59 -33 -35 -54 -67 -62 -98 -6 -24 -15 -43 -20 -40 -24 15 8 86
69 154 41 46 63 61 63 43z m2814 -53 c61 -63 94 -126 77 -143 -6 -6 -13 4 -20
29 -7 27 -30 58 -71 99 -33 33 -60 63 -60 67 0 19 21 4 74 -52z m-1914 36 c0
-3 -4 -8 -10 -11 -5 -3 -10 -1 -10 4 0 6 5 11 10 11 6 0 10 -2 10 -4z m1169
-25 c-2 -17 -18 -44 -18 -32 -1 8 -8 22 -16 31 -14 16 -14 17 10 13 14 -3 25
-8 24 -12z m-1990 -100 c-11 -14 -38 -52 -60 -84 l-40 -57 -34 26 c-57 43 -45
109 33 182 l47 44 37 -43 37 -43 -20 -25z m710 88 c-22 -14 -33 -10 -19 6 7 8
17 12 22 9 6 -4 5 -10 -3 -15z m1987 -31 c86 -80 95 -128 32 -172 -23 -17 -43
-25 -45 -19 -2 5 -19 34 -38 64 -62 98 -61 94 -29 133 16 19 30 35 32 35 1 1
23 -18 48 -41z m-661 22 c3 -5 1 -10 -4 -10 -6 0 -11 5 -11 10 0 6 2 10 4 10
3 0 8 -4 11 -10z m-1070 -27 c19 -13 19 -13 -1 -13 -12 0 -29 9 -39 20 -18 20
-18 21 1 14 10 -4 28 -13 39 -21z m734 -4 c-8 -5 -21 -9 -29 -9 -10 1 -7 7 10
21 17 14 26 17 28 9 3 -7 -2 -16 -9 -21z m-1030 9 c-2 -2 -17 -14 -34 -28
l-30 -25 29 32 c16 18 32 31 34 28 3 -3 3 -6 1 -7z m673 -6 c23 -10 56 -49 46
-57 -2 -1 -26 -13 -54 -27 -33 -15 -50 -19 -47 -11 3 7 19 17 37 22 30 9 30 9
4 10 -33 1 -68 -40 -68 -80 0 -52 89 -82 150 -49 24 13 25 8 4 -33 -24 -47
-45 -67 -68 -66 -17 0 -15 3 10 14 17 8 34 22 38 31 6 17 6 17 -12 1 -10 -9
-28 -17 -40 -17 -13 0 -22 -6 -22 -15 0 -23 -56 -19 -91 8 -17 12 -42 41 -56
65 -22 38 -24 46 -13 67 7 13 10 27 7 32 -4 6 13 29 37 52 l44 43 50 -16 c28
-10 53 -23 55 -29 2 -7 8 -9 12 -4 14 12 -11 30 -73 54 -56 22 -57 22 -17 19
22 -2 52 -9 67 -14z m132 -47 c4 -11 -2 -15 -24 -15 -17 0 -30 5 -30 11 0 5 5
7 10 4 6 -3 10 -1 10 4 0 17 27 13 34 -4z m-523 -15 c-24 -21 -51 -26 -51 -12
0 11 39 31 60 31 10 0 8 -6 -9 -19z m765 6 c10 -8 16 -17 12 -21 -8 -8 -48 13
-48 25 0 14 13 12 36 -4z m-290 -30 c15 -12 17 -17 7 -27 -16 -16 -17 -33 -1
-23 7 4 8 3 4 -4 -4 -6 -14 -8 -23 -5 -11 4 -14 3 -9 -5 5 -8 -3 -14 -23 -18
-17 -4 -31 -10 -31 -15 0 -12 -27 -11 -35 1 -3 5 0 7 8 4 8 -3 20 2 27 10 7 9
17 13 22 10 6 -4 2 5 -7 20 -17 25 -17 27 0 46 21 24 35 25 61 6z m-480 -28
c3 -5 4 -12 1 -14 -7 -7 -47 15 -47 25 0 11 38 2 46 -11z m775 2 c-26 -22 -41
-25 -41 -10 0 6 10 15 23 20 36 14 44 11 18 -10z m-938 -17 c-7 -2 -21 -2 -30
0 -10 3 -4 5 12 5 17 0 24 -2 18 -5z m1104 1 c-3 -3 -12 -4 -19 -1 -8 3 -5 6
6 6 11 1 17 -2 13 -5z m-573 -23 c3 -5 0 -11 -8 -14 -15 -6 -26 1 -26 15 0 11
27 10 34 -1z m-373 -32 c-25 -21 -41 -24 -41 -9 0 11 53 41 60 33 3 -2 -6 -13
-19 -24z m789 -3 c9 -11 9 -16 1 -16 -19 0 -61 31 -55 41 6 11 35 -3 54 -25z
m-780 -46 c13 -8 13 -10 -2 -10 -9 0 -20 5 -23 10 -8 13 5 13 25 0z m760 1 c0
-9 -24 -21 -42 -21 -6 0 -6 6 2 15 14 16 40 20 40 6z m-644 -76 c-36 -19 -45
-19 -20 0 10 8 26 14 34 15 8 0 2 -7 -14 -15z m110 -8 c36 -31 37 -78 3 -106
-13 -11 -28 -20 -33 -21 -5 0 3 9 18 21 43 34 30 90 -27 114 -26 12 -28 14
-10 15 12 0 34 -11 49 -23z m297 3 c-40 -24 -51 -61 -29 -98 l17 -27 -20 24
c-29 33 -27 75 5 100 15 12 34 21 43 21 9 0 3 -8 -16 -20z m-503 -30 c0 -5 -7
-10 -16 -10 -8 0 -12 5 -9 10 3 6 10 10 16 10 5 0 9 -4 9 -10z m720 0 c13 -8
13 -10 -2 -10 -9 0 -20 5 -23 10 -8 13 5 13 25 0z m-331 -33 c13 -6 31 -23 40
-37 14 -22 11 -21 -22 8 -59 51 -122 38 -153 -32 -10 -23 -13 -26 -14 -11 -1
63 86 105 149 72z m222 -40 l-24 -22 19 27 c10 14 21 24 23 22 3 -3 -6 -15
-18 -27z m-520 -3 c22 -25 22 -26 3 -16 -12 6 -24 18 -28 27 -8 21 -3 19 25
-11z m-542 -151 c14 -9 -11 -11 -40 -3 -26 7 -40 19 -52 45 -9 20 -17 38 -17
41 0 3 24 -14 53 -38 28 -23 54 -44 56 -45z m856 41 c-40 -32 -86 -31 -122 1
l-28 25 40 -22 c45 -24 83 -20 113 11 9 10 19 16 22 13 3 -2 -8 -15 -25 -28z
m784 -7 c-10 -22 -54 -48 -78 -47 -3 0 14 18 39 39 25 22 46 38 48 36 1 -1 -3
-14 -9 -28z m-772 -69 c-3 -8 -6 -5 -6 6 -1 11 2 17 5 13 3 -3 4 -12 1 -19z
m-27 -13 c0 -8 -4 -15 -10 -15 -5 0 -10 5 -10 10 0 6 -4 10 -10 10 -5 0 -7 -8
-4 -17 5 -14 4 -15 -4 -4 -5 7 -15 10 -21 7 -6 -4 -11 -1 -11 6 0 9 13 15 35
16 26 2 35 -1 35 -13z m-383 -77 c-3 -8 -6 -5 -6 6 -1 11 2 17 5 13 3 -3 4
-12 1 -19z m93 -47 c0 -10 -7 -18 -15 -18 -10 0 -14 6 -10 14 3 8 5 19 5 24 0
6 5 7 10 4 6 -3 10 -14 10 -24z m-72 0 c3 -8 -1 -12 -9 -9 -7 2 -15 10 -17 17
-3 8 1 12 9 9 7 -2 15 -10 17 -17z m632 -76 c0 -38 0 -38 -24 -29 -19 7 -21
35 -4 52 20 20 28 14 28 -23z m-494 -172 c-3 -7 -11 -13 -17 -13 -9 0 -10 26
-5 97 4 54 11 102 14 108 8 12 15 -172 8 -192z m-62 112 c3 -8 1 -15 -4 -15
-6 0 -10 7 -10 15 0 8 2 15 4 15 2 0 6 -7 10 -15z"/>
<path d="M2527 4905 c-46 -16 -63 -30 -25 -21 39 9 78 25 78 31 0 8 -11 6 -53
-10z"/>
<path d="M2340 4855 c-32 -18 -25 -18 25 0 22 8 31 14 20 14 -11 0 -31 -6 -45
-14z"/>
<path d="M2574 4806 c-10 -8 -16 -17 -13 -20 3 -3 14 3 24 14 21 23 17 26 -11
6z"/>
<path d="M2790 4611 c0 -5 5 -13 10 -16 6 -3 10 -2 10 4 0 5 -4 13 -10 16 -5
3 -10 2 -10 -4z"/>
<path d="M3334 4481 c0 -11 4 -17 8 -15 4 3 8 12 8 20 0 8 -4 14 -8 14 -4 0
-8 -9 -8 -19z"/>
<path d="M2275 4480 c-3 -5 -1 -10 4 -10 6 0 11 5 11 10 0 6 -2 10 -4 10 -3 0
-8 -4 -11 -10z"/>
<path d="M2296 4405 c-11 -8 -16 -18 -11 -22 4 -5 10 -2 12 5 3 6 11 12 19 12
8 0 14 5 14 10 0 14 -11 12 -34 -5z"/>
<path d="M2380 3755 c14 -8 30 -14 35 -14 6 0 -1 6 -15 14 -14 8 -29 14 -35
14 -5 0 1 -6 15 -14z"/>
<path d="M2733 3640 c0 -30 2 -43 4 -27 2 15 2 39 0 55 -2 15 -4 2 -4 -28z"/>
<path d="M1779 4063 c-13 -16 -12 -17 4 -4 9 7 17 15 17 17 0 8 -8 3 -21 -13z"/>
<path d="M2120 3820 c1 -17 28 -56 34 -49 3 3 -4 18 -14 34 -11 17 -20 23 -20
15z"/>
<path d="M2150 3753 c1 -4 20 -21 43 -37 l42 -29 -25 28 c-27 29 -60 50 -60
38z"/>
<path d="M1530 3871 c0 -12 5 -21 10 -21 6 0 10 6 10 14 0 8 -4 18 -10 21 -5
3 -10 -3 -10 -14z"/>
<path d="M1700 3790 c0 -5 5 -10 10 -10 6 0 10 5 10 10 0 6 -4 10 -10 10 -5 0
-10 -4 -10 -10z"/>
<path d="M2270 3294 c0 -12 -10 -29 -22 -40 -19 -17 -21 -17 -15 -1 4 9 3 17
-2 17 -7 0 -23 -60 -17 -67 0 0 18 19 40 44 29 33 36 47 27 56 -8 8 -11 6 -11
-9z"/>
<path d="M2384 3135 c-4 -14 -16 -31 -28 -36 -20 -8 -20 -9 3 -6 18 1 27 10
32 31 5 17 6 32 4 34 -2 2 -7 -8 -11 -23z"/>
<path d="M2910 3067 c0 -2 14 -16 32 -33 l31 -29 -22 33 c-18 26 -41 42 -41
29z"/>
<path d="M2740 3045 c0 -2 18 -14 40 -25 22 -11 40 -17 40 -12 0 5 -16 16 -35
25 -38 18 -45 20 -45 12z"/>
<path d="M2400 2770 c8 -5 22 -10 30 -10 13 0 13 1 0 10 -8 5 -22 10 -30 10
-13 0 -13 -1 0 -10z"/>
<path d="M1825 2520 c-3 -5 1 -10 9 -10 9 0 16 5 16 10 0 6 -4 10 -9 10 -6 0
-13 -4 -16 -10z"/>
<path d="M1870 2431 c0 -6 5 -13 10 -16 6 -3 10 1 10 9 0 9 -4 16 -10 16 -5 0
-10 -4 -10 -9z"/>
<path d="M4140 3076 c0 -24 14 -25 39 -5 13 10 18 19 13 19 -6 0 -14 -4 -17
-10 -3 -5 -11 -10 -16 -10 -6 0 -7 5 -4 10 3 6 1 10 -4 10 -6 0 -11 -6 -11
-14z"/>
<path d="M3170 3027 c-58 -34 -79 -65 -85 -125 -3 -20 -2 -28 1 -17 20 80 34
100 89 130 30 16 55 33 55 37 0 11 0 11 -60 -25z"/>
<path d="M2658 2655 c4 -95 2 -106 -31 -207 -20 -58 -50 -134 -67 -168 -17
-34 -26 -59 -19 -55 19 13 128 248 140 305 12 59 6 143 -15 193 -12 29 -12 22
-8 -68z"/>
<path d="M2760 2415 c-7 -9 -11 -18 -8 -20 3 -3 11 1 18 10 7 9 11 18 8 20 -3
3 -11 -1 -18 -10z"/>
<path d="M1297 4430 c-20 -4 -40 -10 -44 -14 -9 -8 73 4 102 15 l20 8 -20 -1
c-11 0 -37 -4 -58 -8z"/>
<path d="M4560 4430 c14 -4 41 -8 60 -8 l35 0 -30 8 c-16 4 -43 8 -60 8 -29 0
-29 0 -5 -8z"/>
<path d="M1065 4160 c-3 -5 -1 -10 4 -10 6 0 11 5 11 10 0 6 -2 10 -4 10 -3 0
-8 -4 -11 -10z"/>
<path d="M4025 3949 c-11 -17 1 -21 15 -4 8 9 8 15 2 15 -6 0 -14 -5 -17 -11z"/>
<path d="M3376 1115 c-3 -8 -1 -15 4 -15 6 0 10 7 10 15 0 8 -2 15 -4 15 -2 0
-6 -7 -10 -15z"/>
<path d="M3120 942 c0 -16 25 -32 50 -32 l25 0 -25 20 c-26 20 -50 26 -50 12z"/>
<path d="M2877 873 c-11 -10 -8 -20 8 -27 9 -3 19 3 25 14 9 17 7 20 -8 20
-10 0 -22 -3 -25 -7z"/>
<path d="M3086 771 c-4 -7 -5 -15 -2 -18 9 -9 19 4 14 18 -4 11 -6 11 -12 0z"/>
</g>
</svg>
